<svg width="71" height="125" viewBox="0 0 71 125" fill="none" xmlns="http://www.w3.org/2000/svg">
<g id="_&#235;&#160;&#136;&#236;&#157;&#180;&#236;&#150;&#180;_1">
<path id="Vector" d="M55.7126 119.084C58.7457 111.5 60.5875 103.47 60.9448 95.3239C61.1373 90.956 60.8074 86.6328 60.2484 82.3007C59.8269 79.0136 59.2955 75.7355 58.3791 72.5378C56.5556 66.2048 53.1103 60.2649 47.4016 56.5491C42.5817 53.4139 35.4069 50.4484 29.9181 53.7265C26.546 55.7362 24.2827 59.7111 25.4648 63.5698C26.5644 67.1695 30.1289 69.9921 33.9224 70.4834C40.4283 71.323 46.3111 65.9636 48.6478 60.515C51.3692 54.1642 50.9294 46.7683 49.5549 40.1495C48.043 32.8787 44.9458 26.0634 40.2451 20.2217C31.9432 9.93177 19.1421 4.02756 5.85543 3.10754C5.01242 3.05395 4.1694 3.01822 3.32638 3.00035C1.55787 2.96463 1.55787 5.64429 3.32638 5.68002C14.8904 5.90333 26.4269 10.1461 34.683 18.1583C43.7088 26.9119 48.6936 39.953 47.7498 52.3599C47.3466 57.6477 45.3765 63.0071 40.6666 66.0351C37.8718 67.8305 34.5272 68.6254 31.5033 66.8569C28.2779 64.9722 26.7476 61.2206 29.0842 58.0497C32.9878 52.7618 40.355 55.4861 44.9641 58.2283C49.8573 61.1313 53.1286 65.7582 54.9887 70.9836C57.1787 77.1289 58.0309 84.0068 58.2234 90.4826C58.4616 98.3966 57.2062 106.284 54.723 113.814C54.219 115.35 53.6509 116.877 53.0553 118.387C52.4139 119.995 55.0712 120.691 55.7035 119.101L55.7126 119.084Z" fill="#C6C6CF"/>
<path id="Vector_2" d="M46.2393 109.998C48.7054 113.627 50.9375 117.401 52.9356 121.314C53.2506 121.927 54.2046 122.221 54.7806 121.808C59.3259 118.519 63.8711 115.23 68.4073 111.941C69.8113 110.924 68.4613 108.542 67.0482 109.568C62.503 112.857 57.9578 116.146 53.4216 119.435L55.2667 119.93C53.2686 116.018 51.0275 112.243 48.5704 108.615C47.5893 107.167 45.2492 108.542 46.2393 109.998Z" fill="#C6C6CF"/>
</g>
</svg>
