<svg width="20" height="20" viewBox="0 0 20 20" fill="none" xmlns="http://www.w3.org/2000/svg">
<g id="circle-emphasis">
<g id="Vector">
<path d="M9.99935 5.83366C10.4596 5.83366 10.8327 6.20675 10.8327 6.66699V10.8337C10.8327 11.2939 10.4596 11.667 9.99935 11.667C9.53911 11.667 9.16602 11.2939 9.16602 10.8337V6.66699C9.16602 6.20675 9.53911 5.83366 9.99935 5.83366Z" fill="#464655"/>
<path d="M9.99935 14.167C10.4596 14.167 10.8327 13.7939 10.8327 13.3337C10.8327 12.8734 10.4596 12.5003 9.99935 12.5003C9.53911 12.5003 9.16602 12.8734 9.16602 13.3337C9.16602 13.7939 9.53911 14.167 9.99935 14.167Z" fill="#464655"/>
<path fill-rule="evenodd" clip-rule="evenodd" d="M1.66602 10.0003C1.66602 5.39795 5.39698 1.66699 9.99935 1.66699C14.6017 1.66699 18.3327 5.39795 18.3327 10.0003C18.3327 14.6027 14.6017 18.3337 9.99935 18.3337C5.39698 18.3337 1.66602 14.6027 1.66602 10.0003ZM9.99935 3.33366C6.31745 3.33366 3.33268 6.31843 3.33268 10.0003C3.33268 13.6822 6.31745 16.667 9.99935 16.667C13.6812 16.667 16.666 13.6822 16.666 10.0003C16.666 6.31843 13.6812 3.33366 9.99935 3.33366Z" fill="#464655"/>
</g>
</g>
</svg>
