<svg fill="none" viewBox="0 0 32 32" xmlns="http://www.w3.org/2000/svg">
    <g id="Icon / Google">
        <path clip-rule="evenodd" d="M31.36 16.3635C31.36 15.229 31.2582 14.1381 31.0691 13.0908H16V19.2799H24.6109C24.24 21.2799 23.1127 22.9745 21.4182 24.109V28.1235H26.5891C29.6145 25.3381 31.36 21.2363 31.36 16.3635Z" fill="#4285F4"
            fill-rule="evenodd"
            id="Shape" />
        <path clip-rule="evenodd" d="M15.9998 32C20.3198 32 23.9417 30.5673 26.5889 28.1237L21.418 24.1091C19.9853 25.0691 18.1526 25.6364 15.9998 25.6364C11.8326 25.6364 8.3053 22.8219 7.04711 19.04H1.70166V23.1855C4.33439 28.4146 9.7453 32 15.9998 32Z" fill="#34A853"
            fill-rule="evenodd"
            id="Shape_2" />
        <path clip-rule="evenodd" d="M7.04727 19.0399C6.72727 18.0799 6.54545 17.0545 6.54545 15.9999C6.54545 14.9454 6.72727 13.9199 7.04727 12.9599V8.81445H1.70182C0.618182 10.9745 0 13.4181 0 15.9999C0 18.5817 0.618182 21.0254 1.70182 23.1854L7.04727 19.0399Z" fill="#FBBC05"
            fill-rule="evenodd"
            id="Shape_3" />
        <path clip-rule="evenodd" d="M15.9998 6.36364C18.3489 6.36364 20.458 7.17091 22.1162 8.75636L26.7053 4.16727C23.9344 1.58545 20.3126 0 15.9998 0C9.7453 0 4.33439 3.58545 1.70166 8.81455L7.04711 12.96C8.3053 9.17818 11.8326 6.36364 15.9998 6.36364Z" fill="#EA4335"
            fill-rule="evenodd"
            id="Shape_4" />
    </g>
</svg>
