<svg width="20" height="20" viewBox="0 0 20 20" fill="none" xmlns="http://www.w3.org/2000/svg">
<g id="icon-pill">
<path id="Vector" d="M13.1378 13.4298L6.71484 7.59082" stroke="white" stroke-width="2" stroke-miterlimit="10"/>
<path id="Vector 19" d="M13.1378 12.8457L7.00684 7.2986L11.3861 2.62739C12.4566 1.84885 15.0063 0.758906 16.6412 2.62739C18.6849 4.96299 18.3929 7.59055 17.5171 8.4664L13.1378 12.8457Z" fill="white" stroke="white"/>
<path id="Vector 20" d="M7.02464 7.00655L13.4297 12.7647L8.85465 17.6136C7.73631 18.4218 5.07262 19.5532 3.3646 17.6136C1.22959 15.1892 1.53459 12.4616 2.4496 11.5524L7.02464 7.00655Z" fill="white"/>
<path id="Vector_2" d="M16.8752 9.37413C18.6009 7.6484 18.6009 4.85044 16.8752 3.12471C15.1495 1.39898 12.3515 1.39898 10.6258 3.12471L3.12462 10.6259C1.39889 12.3516 1.39889 15.1496 3.12462 16.8753C4.85035 18.601 7.64831 18.601 9.37404 16.8753L16.8752 9.37413Z" stroke="white" stroke-width="2" stroke-miterlimit="10"/>
<line id="Line 4" x1="5.96248" y1="5.71574" x2="15.3049" y2="15.0582" stroke="#2666F6" stroke-width="2"/>
</g>
</svg>
