<svg width="50" height="50" viewBox="0 0 50 50" fill="none" xmlns="http://www.w3.org/2000/svg">
<circle cx="25" cy="25" r="25" fill="#F1F5FE"/>
<g clip-path="url(#clip0_3685_10463)">
<path d="M25.0012 24.3917C28.4828 24.3917 31.3052 21.6177 31.3052 18.1958C31.3052 14.774 28.4828 12 25.0012 12C21.5196 12 18.6973 14.774 18.6973 18.1958C18.6973 21.6177 21.5196 24.3917 25.0012 24.3917Z" fill="#5588FD"/>
<path d="M34.5322 31.1556C32.9493 27.6106 29.1887 27.4478 29.1887 27.4478H25.0326C25.0326 27.4478 25.0207 27.4478 24.9998 27.4463C24.9789 27.447 24.9669 27.4478 24.9669 27.4478H20.8108C20.8108 27.4478 17.0502 27.6106 15.4673 31.1556C13.8844 34.7006 15.6323 36.0011 18.8316 37.5627C20.5519 38.4018 22.6825 38.9871 24.9998 39.0003C27.317 38.9871 29.4477 38.4018 31.1679 37.5627C34.3673 36.0018 36.1159 34.7006 34.5322 31.1556Z" fill="#5588FD"/>
</g>
<defs>
<clipPath id="clip0_3685_10463">
<rect width="20.25" height="27" fill="white" transform="translate(14.875 12)"/>
</clipPath>
</defs>
</svg>
