<svg width="41" height="40" viewBox="0 0 41 40" fill="none" xmlns="http://www.w3.org/2000/svg">
<g id="icon-bell(1)">
<rect id="Rectangle 995" x="0.915039" y="0.5" width="39" height="39" rx="15.5" fill="#F5F5F9" stroke="#E9E9EE"/>
<g id="Group 16">
<g id="bell-check">
<path id="Vector" d="M27.5935 23.1395V18.5375C27.5912 16.3403 26.8342 14.2338 25.4884 12.6802C24.1426 11.1265 22.3179 10.2526 20.4147 10.25C18.5114 10.2526 16.6867 11.1265 15.3409 12.6802C13.9951 14.2338 13.2381 16.3403 13.2359 18.5375V23.1395L11.6396 24.9823V26.825H29.1897V24.9823L27.5935 23.1395Z" fill="#626272"/>
<path id="Vector_2" d="M23.1646 25.8496C23.2905 26.1715 23.3495 26.5151 23.3384 26.86C23.3384 27.6264 23.0304 28.3613 22.4821 28.9033C21.9338 29.4452 21.1902 29.7496 20.4148 29.7496C19.6393 29.7496 18.8957 29.4452 18.3474 28.9033C17.7991 28.3613 17.4911 27.6264 17.4911 26.86C17.48 26.5151 17.5391 26.1715 17.6649 25.8496" fill="#626272"/>
</g>
</g>
</g>
</svg>
