<svg width="34" height="18" viewBox="0 0 34 18" fill="none" xmlns="http://www.w3.org/2000/svg">
<rect x="0.5" y="0.5" width="33" height="17" rx="8.5" fill="#F5F5F9"/>
<path d="M8.34 9.01H16.37V9.86H12.89V10.65C14.47 10.75 15.41 11.3 15.41 12.22C15.41 13.22 14.26 13.79 12.35 13.79C10.43 13.79 9.28 13.22 9.28 12.22C9.28 11.3 10.22 10.75 11.81 10.65V9.86H8.34V9.01ZM8.73 7.73C10.36 7.58 11.43 6.91 11.6 6.16H9.07V5.31H15.65V6.16H13.12C13.29 6.91 14.35 7.58 15.99 7.73L15.61 8.58C14.02 8.41 12.83 7.78 12.36 6.87C11.88 7.77 10.7 8.41 9.11 8.58L8.73 7.73ZM10.36 12.22C10.36 12.72 11.06 12.98 12.35 12.98C13.62 12.98 14.32 12.72 14.32 12.22C14.32 11.7 13.62 11.45 12.35 11.45C11.06 11.45 10.36 11.7 10.36 12.22ZM17.0802 9.39H20.5502V8.51H18.1302V5.13H19.1902V6.01H23.0102V5.13H24.0802V8.51H21.6202V9.39H25.1102V10.25H17.0802V9.39ZM17.9702 11.83V10.98H24.1302V13.8H23.0602V11.83H17.9702ZM19.1902 7.66H23.0102V6.83H19.1902V7.66Z" fill="#90909F"/>
<rect x="0.5" y="0.5" width="33" height="17" rx="8.5" stroke="#90909F"/>
</svg>
