<svg width="24" height="24" viewBox="0 0 24 24" fill="none" xmlns="http://www.w3.org/2000/svg">
<g clip-path="url(#clip0_3685_10384)">
<path d="M17.7104 13C17.7111 12.6487 17.6777 12.2982 17.6106 11.9533L19 11.1533L17.0921 7.82L15.7094 8.62C15.1749 8.16576 14.5621 7.8133 13.9012 7.58V6H10.0988V7.60667C9.4379 7.83997 8.82511 8.19243 8.2906 8.64667L6.90788 7.84667L5 11.18L6.38936 11.98C6.25639 12.6714 6.25639 13.3819 6.38936 14.0733L5 14.8733L6.90788 18.2067L8.2906 17.4067C8.82511 17.8609 9.4379 18.2134 10.0988 18.4467V20H13.9012V18.3933C14.5621 18.16 15.1749 17.8076 15.7094 17.3533L17.0921 18.1533L19 14.82L17.6106 14.02C17.676 13.6839 17.7094 13.3424 17.7104 13Z" stroke="#151515" stroke-width="1.3" stroke-miterlimit="10"/>
<path d="M12 15C13.1046 15 14 14.1046 14 13C14 11.8954 13.1046 11 12 11C10.8954 11 10 11.8954 10 13C10 14.1046 10.8954 15 12 15Z" stroke="#151515" stroke-width="1.3" stroke-miterlimit="10"/>
</g>
<defs>
<clipPath id="clip0_3685_10384">
<rect width="16" height="16" fill="white" transform="translate(4 5)"/>
</clipPath>
</defs>
</svg>
