<svg width="50" height="50" viewBox="0 0 50 50" fill="none" xmlns="http://www.w3.org/2000/svg">
<circle cx="25" cy="25" r="25" fill="#F1F5FE"/>
<g clip-path="url(#clip0_3685_10464)">
<path d="M28.8313 17.0161C28.8313 14.8191 27.1162 13.0381 25.0006 13.0381C22.885 13.0381 21.1699 14.8191 21.1699 17.0161V33.9832C21.1699 36.1801 22.885 37.9612 25.0006 37.9612C27.1162 37.9612 28.8313 36.1801 28.8313 33.9832V17.0161Z" fill="#5588FD"/>
<path d="M33.1693 29.4775C35.2849 29.4775 37 27.6965 37 25.4995C37 23.3025 35.2849 21.5215 33.1693 21.5215H16.8307C14.715 21.5215 13 23.3025 13 25.4995C13 27.6965 14.715 29.4775 16.8307 29.4775H33.1693Z" fill="#5588FD"/>
</g>
<defs>
<clipPath id="clip0_3685_10464">
<rect width="24" height="24.9231" fill="white" transform="translate(13 13.0381)"/>
</clipPath>
</defs>
</svg>
