<svg width="24" height="24" viewBox="0 0 24 24" fill="none" xmlns="http://www.w3.org/2000/svg">
<path d="M15.9086 13.5541V10.5C15.9071 9.04183 15.3894 7.64387 14.4692 6.61278C13.549 5.5817 12.3014 5.00169 11 5C9.69863 5.00169 8.45099 5.5817 7.53079 6.61278C6.61058 7.64387 6.09294 9.04183 6.09143 10.5V13.5541L5 14.7771V16H17V14.7771L15.9086 13.5541Z" stroke="#151515" stroke-width="1.3" stroke-miterlimit="10"/>
<path d="M12.8803 16C12.9663 16.2063 13.0067 16.4266 12.9991 16.6477C12.9991 17.1389 12.7885 17.6101 12.4136 17.9575C12.0387 18.3048 11.5302 18.5 11 18.5C10.4698 18.5 9.96133 18.3048 9.58642 17.9575C9.21152 17.6101 9.0009 17.1389 9.0009 16.6477C8.9933 16.4266 9.03371 16.2063 9.11973 16" stroke="#151515" stroke-width="1.3" stroke-miterlimit="10"/>
</svg>
