<svg width="21" height="20" viewBox="0 0 21 20" fill="none" xmlns="http://www.w3.org/2000/svg">
<g id="icon_celedar">
<g id="Group 230">
<path id="Vector" d="M15.5991 3.78125H5.62318C4.45058 3.78125 3.5 4.73158 3.5 5.90388V15.8772C3.5 17.0495 4.45058 17.9999 5.62318 17.9999H15.5991C16.7717 17.9999 17.7223 17.0495 17.7223 15.8772V5.90388C17.7223 4.73158 16.7717 3.78125 15.5991 3.78125Z" fill="#626272"/>
<path id="Vector_2" d="M7.82199 2H7.49177C6.70699 2 6.0708 2.63602 6.0708 3.4206V14.798C6.0708 15.5826 6.70699 16.2186 7.49177 16.2186H7.82199C8.60677 16.2186 9.24296 15.5826 9.24296 14.798V3.4206C9.24296 2.63602 8.60677 2 7.82199 2Z" fill="#626272"/>
<path id="Vector_3" d="M13.6926 2H13.3624C12.5776 2 11.9414 2.63602 11.9414 3.4206V14.798C11.9414 15.5826 12.5776 16.2186 13.3624 16.2186H13.6926C14.4774 16.2186 15.1136 15.5826 15.1136 14.798V3.4206C15.1136 2.63602 14.4774 2 13.6926 2Z" fill="#626272"/>
<path id="Vector_4" d="M14.6841 7.79492H6.53734C5.78564 7.79492 5.17627 8.40414 5.17627 9.15564V14.9846C5.17627 15.7361 5.78564 16.3453 6.53734 16.3453H14.6841C15.4358 16.3453 16.0451 15.7361 16.0451 14.9846V9.15564C16.0451 8.40414 15.4358 7.79492 14.6841 7.79492Z" fill="#F5F5F9"/>
<path id="Vector_5" d="M7.83772 9.68359H7.25215C6.83082 9.68359 6.48926 10.0251 6.48926 10.4463V10.8773C6.48926 11.2985 6.83082 11.64 7.25215 11.64H7.83772C8.25905 11.64 8.60061 11.2985 8.60061 10.8773V10.4463C8.60061 10.0251 8.25905 9.68359 7.83772 9.68359Z" fill="#626272"/>
<path id="Vector_6" d="M7.83772 12.5H7.25215C6.83082 12.5 6.48926 12.8415 6.48926 13.2627V13.6937C6.48926 14.1149 6.83082 14.4564 7.25215 14.4564H7.83772C8.25905 14.4564 8.60061 14.1149 8.60061 13.6937V13.2627C8.60061 12.8415 8.25905 12.5 7.83772 12.5Z" fill="#626272"/>
<path id="Vector_7" d="M10.8538 9.68359H10.2683C9.84693 9.68359 9.50537 10.0251 9.50537 10.4463V10.8773C9.50537 11.2985 9.84693 11.64 10.2683 11.64H10.8538C11.2752 11.64 11.6167 11.2985 11.6167 10.8773V10.4463C11.6167 10.0251 11.2752 9.68359 10.8538 9.68359Z" fill="#626272"/>
<path id="Vector_8" d="M10.8538 12.5H10.2683C9.84693 12.5 9.50537 12.8415 9.50537 13.2627V13.6937C9.50537 14.1149 9.84693 14.4564 10.2683 14.4564H10.8538C11.2752 14.4564 11.6167 14.1149 11.6167 13.6937V13.2627C11.6167 12.8415 11.2752 12.5 10.8538 12.5Z" fill="#626272"/>
<path id="Vector_9" d="M13.9696 9.68359H13.384C12.9627 9.68359 12.6211 10.0251 12.6211 10.4463V10.8773C12.6211 11.2985 12.9627 11.64 13.384 11.64H13.9696C14.3909 11.64 14.7325 11.2985 14.7325 10.8773V10.4463C14.7325 10.0251 14.3909 9.68359 13.9696 9.68359Z" fill="#626272"/>
<path id="Vector_10" d="M13.9696 12.5H13.384C12.9627 12.5 12.6211 12.8415 12.6211 13.2627V13.6937C12.6211 14.1149 12.9627 14.4564 13.384 14.4564H13.9696C14.3909 14.4564 14.7325 14.1149 14.7325 13.6937V13.2627C14.7325 12.8415 14.3909 12.5 13.9696 12.5Z" fill="#626272"/>
</g>
</g>
</svg>
