<svg width="50" height="50" viewBox="0 0 50 50" fill="none" xmlns="http://www.w3.org/2000/svg">
<circle cx="25" cy="25" r="25" fill="#F1F5FE"/>
<path d="M23.2065 14.634C23.9402 13.1475 26.0598 13.1475 26.7935 14.634L28.6492 18.394C28.9405 18.9843 29.5036 19.3934 30.155 19.4881L34.3045 20.091C35.9449 20.3294 36.5999 22.3453 35.4129 23.5024L32.4103 26.4292C31.939 26.8887 31.7239 27.5507 31.8351 28.1994L32.5439 32.3321C32.8242 33.9659 31.1093 35.2119 29.642 34.4405L25.9307 32.4893C25.348 32.183 24.652 32.183 24.0693 32.4893L20.358 34.4405C18.8907 35.2119 17.1758 33.9659 17.4561 32.3321L18.1649 28.1994C18.2761 27.5507 18.061 26.8887 17.5897 26.4292L14.5871 23.5024C13.4001 22.3453 14.0551 20.3294 15.6955 20.091L19.845 19.4881C20.4964 19.3934 21.0595 18.9843 21.3508 18.394L23.2065 14.634Z" fill="#5588FD"/>
</svg>
