<svg width="24" height="24" viewBox="0 0 24 24" fill="none" xmlns="http://www.w3.org/2000/svg">
<g id="pencil-box">
<g id="Group 24">
<path id="Vector" d="M19.4539 11.4997V18.9998C19.4539 19.552 19.0061 19.9998 18.4539 19.9998H5C4.44772 19.9998 4 19.552 4 18.9998V5.5459C4 4.99361 4.44772 4.5459 5 4.5459H13.2772" stroke="#464655" stroke-width="1.5" stroke-miterlimit="10" stroke-linecap="round"/>
<path id="Vector_2" d="M12.5001 14.5924L8.63867 15.3615L9.40772 11.5L17.2682 3.63953C17.471 3.43625 17.7121 3.27509 17.9774 3.16533C18.2428 3.05558 18.5273 2.99939 18.8144 3C19.3941 3 19.9501 3.23029 20.36 3.64019C20.7699 4.05009 21.0001 4.60604 21.0001 5.18573C21.0007 5.47289 20.9446 5.75734 20.8348 6.0227C20.725 6.28806 20.5639 6.52909 20.3606 6.73192L12.5001 14.5924Z" stroke="#464655" stroke-width="1.5" stroke-miterlimit="10" stroke-linejoin="round"/>
</g>
</g>
</svg>
