<svg width="16" height="22" viewBox="0 0 16 22" fill="none" xmlns="http://www.w3.org/2000/svg">
<path fill-rule="evenodd" clip-rule="evenodd" d="M13.5567 7H2.44465C1.83125 7 1.33398 7.49726 1.33398 8.11067V17C1.33398 18.8409 2.82637 20.3333 4.66732 20.3333H11.334C12.218 20.3333 13.0659 19.9821 13.691 19.357C14.3161 18.7319 14.6673 17.8841 14.6673 17V8.11067C14.6673 7.49726 14.1701 7 13.5567 7Z" stroke="#626272" stroke-width="2" stroke-linecap="round" stroke-linejoin="round"/>
<path fill-rule="evenodd" clip-rule="evenodd" d="M12 4.33366L11.0347 2.40433C10.809 1.95269 10.3476 1.66726 9.84267 1.66699H6.15733C5.65245 1.66726 5.19102 1.95269 4.96533 2.40433L4 4.33366H12Z" stroke="#626272" stroke-width="2" stroke-linecap="round" stroke-linejoin="round"/>
<path d="M6.77798 11.4447C6.77798 10.8924 6.33027 10.4447 5.77798 10.4447C5.2257 10.4447 4.77798 10.8924 4.77798 11.4447H6.77798ZM4.77798 15.8887C4.77798 16.4409 5.2257 16.8887 5.77798 16.8887C6.33027 16.8887 6.77798 16.4409 6.77798 15.8887H4.77798ZM11.2233 11.4447C11.2233 10.8924 10.7756 10.4447 10.2233 10.4447C9.67103 10.4447 9.22332 10.8924 9.22332 11.4447H11.2233ZM9.22332 15.8887C9.22332 16.4409 9.67103 16.8887 10.2233 16.8887C10.7756 16.8887 11.2233 16.4409 11.2233 15.8887H9.22332ZM12.0007 3.33398C11.4484 3.33398 11.0007 3.7817 11.0007 4.33398C11.0007 4.88627 11.4484 5.33398 12.0007 5.33398V3.33398ZM14.6673 5.33398C15.2196 5.33398 15.6673 4.88627 15.6673 4.33398C15.6673 3.7817 15.2196 3.33398 14.6673 3.33398V5.33398ZM4.00065 5.33398C4.55294 5.33398 5.00065 4.88627 5.00065 4.33398C5.00065 3.7817 4.55294 3.33398 4.00065 3.33398V5.33398ZM1.33398 3.33398C0.7817 3.33398 0.333984 3.7817 0.333984 4.33398C0.333984 4.88627 0.7817 5.33398 1.33398 5.33398V3.33398ZM4.77798 11.4447V15.8887H6.77798V11.4447H4.77798ZM9.22332 11.4447V15.8887H11.2233V11.4447H9.22332ZM12.0007 5.33398H14.6673V3.33398H12.0007V5.33398ZM4.00065 3.33398H1.33398V5.33398H4.00065V3.33398Z" fill="#626272"/>
</svg>
