<svg width="266" height="128" viewBox="0 0 266 128" fill="none" xmlns="http://www.w3.org/2000/svg">
<path d="M153.691 107.356L167.483 120.118C172.187 124.471 179.557 124.278 183.945 119.686C188.333 115.094 188.077 107.843 183.373 103.49L169.581 90.7281C164.877 86.3753 157.506 86.5688 153.118 91.1605C148.73 95.7522 148.987 103.003 153.691 107.356Z" fill="url(#paint0_linear_4535_9265)"/>
<path d="M189.105 80.4976L166.894 103.74C162.534 108.302 162.779 115.497 167.441 119.811C172.102 124.124 179.416 123.923 183.775 119.361L205.987 96.1187C210.346 91.5568 210.102 84.3617 205.44 80.048C200.778 75.7344 193.465 75.9357 189.105 80.4976Z" fill="url(#paint1_linear_4535_9265)"/>
<path d="M192.459 102.752L183.817 94.7561C183.366 94.3385 182.701 94.3131 182.332 94.6994L182.287 94.7465C181.917 95.1328 181.984 95.7844 182.435 96.202L191.077 104.198C191.528 104.616 192.193 104.641 192.562 104.255L192.607 104.208C192.976 103.822 192.91 103.17 192.459 102.752Z" fill="#BDD0FF" fill-opacity="0.45"/>
<path d="M127.589 107.183H107.681C106.142 107.183 105.149 106.532 105.149 104.48C105.149 102.428 106.142 101.777 107.681 101.777H130.567C132.553 101.777 133.546 102.778 133.546 104.28V112.439C133.546 113.94 132.553 114.941 130.567 114.941H111.007V116.843C111.007 117.394 111.255 117.594 111.801 117.594H132.553C134.092 117.594 135.085 118.245 135.085 120.297C135.085 122.349 134.092 123 132.553 123H109.766C106.738 123 105.05 121.448 105.05 118.645V112.288C105.05 110.236 106.043 109.635 107.582 109.635H127.589V107.183ZM98 88.4625C98 81.7552 102.716 77.901 110.262 77.901C117.858 77.901 122.376 81.7552 122.376 88.4625C122.376 95.6202 117.56 99.0239 110.262 99.0239C103.014 99.0239 98 95.6202 98 88.4625ZM127.589 97.1719V79.5027C127.589 78.0011 128.582 77 130.567 77C132.553 77 133.546 78.0011 133.546 79.5027V85.3591H137.468C139.007 85.3591 140 86.21 140 88.2622C140 90.3145 139.007 91.1654 137.468 91.1654H133.546V97.1719C133.546 98.6736 132.553 99.6746 130.567 99.6746C128.582 99.6746 127.589 98.6736 127.589 97.1719ZM116.468 88.4625C116.468 84.9086 113.738 83.3069 110.262 83.3069C106.787 83.3069 103.957 84.8585 103.957 88.4625C103.957 92.0163 106.787 93.6181 110.262 93.6181C113.738 93.6181 116.468 92.0163 116.468 88.4625Z" fill="#205DF0"/>
<path d="M52 89.3232C52 82.2885 56.9645 78.0477 64.2128 78.0477C71.5106 78.0477 76.2766 82.2885 76.2766 89.3232C76.2766 96.6074 71.5106 100.649 64.2128 100.649C56.9645 100.649 52 96.6074 52 89.3232ZM81.3901 111.026H60.4397C58.9007 111.026 57.9078 110.228 57.9078 108.182C57.9078 106.137 58.9007 105.338 60.4397 105.338H85.0142C86.5532 105.338 87.5461 106.137 87.5461 108.182V120.505C87.5461 122.002 86.4539 123 84.4681 123C82.4823 123 81.3901 122.002 81.3901 120.505V111.026ZM81.5886 100.349V79.4946C81.5886 77.9978 82.5816 77 84.5674 77C86.5532 77 87.5461 77.9978 87.5461 79.4946V82.6377H91.4681C93.0071 82.6377 94 83.3362 94 85.3818C94 87.4273 93.0071 88.1258 91.4681 88.1258H87.5461V91.9176H91.4681C93.0071 91.9176 94 92.6161 94 94.6616C94 96.7072 93.0071 97.4056 91.4681 97.4056H87.5461V100.349C87.5461 101.846 86.5532 102.844 84.5674 102.844C82.5816 102.844 81.5886 101.846 81.5886 100.349ZM70.3191 89.3232C70.3191 85.4816 67.6879 83.5358 64.2128 83.5358C60.7376 83.5358 58.0567 85.4816 58.0567 89.3232C58.0567 93.1649 60.7376 95.1605 64.2128 95.1605C67.6879 95.1605 70.3191 93.1649 70.3191 89.3232Z" fill="#205DF0"/>
<path d="M20.3203 11.6406V14.0547H17.5547V16.2344H20.3203V18.7188H17.5547V21.4141H14.5547V8.82812H17.5547V11.6406H20.3203ZM0.773438 15.1797C0.761719 12.168 3.29297 9.98828 6.63281 10C9.9375 9.98828 12.4453 12.168 12.4453 15.1797C12.4453 18.2617 9.9375 20.418 6.63281 20.4062C3.29297 20.418 0.761719 18.2617 0.773438 15.1797ZM3.1875 24.6719V22.2578H17.5547V30.1562H14.5547V24.6719H3.1875ZM3.72656 15.1797C3.70312 16.9023 4.95703 17.8867 6.63281 17.875C8.27344 17.8867 9.52734 16.9023 9.53906 15.1797C9.52734 13.5156 8.27344 12.543 6.63281 12.5547C4.95703 12.543 3.70312 13.5156 3.72656 15.1797ZM153.398 8.82812V12.9531H156.281V15.4141H153.398V19.4922H150.398V8.82812H153.398ZM136.617 14.2891C136.605 11.4414 139.078 9.47266 142.359 9.46094C145.629 9.47266 148.078 11.4414 148.078 14.2891C148.078 17.1016 145.629 19.1172 142.359 19.1172C139.078 19.1172 136.605 17.1016 136.617 14.2891ZM139.242 22.6328V20.3359H153.398V26.1484H142.219V27.5781H154.008V29.9219H139.289V23.9922H150.422V22.6328H139.242ZM139.547 14.2891C139.523 15.8008 140.719 16.75 142.359 16.75C143.988 16.75 145.172 15.8008 145.172 14.2891C145.172 12.8008 143.988 11.8984 142.359 11.8984C140.719 11.8984 139.523 12.8008 139.547 14.2891Z" fill="#205DF0"/>
<path d="M31.0781 9.22656C35.9062 9.23828 38.707 10.5156 38.7188 12.8594C38.707 15.2266 35.9062 16.5039 31.0781 16.5156C26.2617 16.5039 23.4375 15.2266 23.4375 12.8594C23.4375 10.5156 26.2617 9.23828 31.0781 9.22656ZM21.4453 19.7266V17.6406H40.7578V19.7266H21.4453ZM23.7188 23.0781V21.1562H38.3438V26.3359H26.2969V27.9062H38.9297V29.8984H23.7422V24.4844H35.7891V23.0781H23.7188ZM26.1797 12.8594C26.168 14.0312 27.8555 14.5703 31.0781 14.5703C34.3477 14.5703 36.0234 14.0312 36.0234 12.8594C36.0234 11.7695 34.3477 11.1484 31.0781 11.1484C27.8555 11.1484 26.168 11.7695 26.1797 12.8594ZM57.5156 9.10938C62.3438 9.12109 65.1445 10.4102 65.1562 12.7422C65.1445 14.8984 62.8242 16.1406 58.7812 16.3633V17.7109H67.1953V19.7969H47.8828V17.7109H56.2031V16.3633C52.1953 16.1406 49.875 14.8867 49.875 12.7422C49.875 10.4102 52.6992 9.12109 57.5156 9.10938ZM50.1562 23.125V21.1562H64.7812V26.3359H52.7344V27.9062H65.3672V29.8984H50.1797V24.4844H62.2266V23.125H50.1562ZM52.6172 12.7422C52.6055 13.9141 54.293 14.4531 57.5156 14.4766C60.7852 14.4531 62.4609 13.9141 62.4609 12.7422C62.4609 11.6523 60.7852 11.0664 57.5156 11.0547C54.293 11.0664 52.6055 11.6523 52.6172 12.7422ZM85.2188 8.89844V16.9609H88.4766V19.1641H85.2188V30.0859H82.6172V8.89844H85.2188ZM69.375 25.1172V10.6328H71.9531V15.9297H76.9453V10.6328H79.5469V25.1172H69.375ZM71.9531 22.9844H76.9453V17.9688H71.9531V22.9844ZM108.727 25.4453V27.5781H89.3672V25.4453H108.727ZM91.6172 12.5078V10.3984H106.43V17.2188H94.2656V19.9844H106.922V22.0469H91.6641V15.1328H103.852V12.5078H91.6172ZM128.391 8.89844V30.0859H125.906V8.89844H128.391ZM109.945 23.7578C114.328 21.168 116.344 17.8516 116.742 13.5859H111.023V11.4766H119.32C119.32 13.5273 119.062 15.4492 118.488 17.2422H121.43V9.41406H123.891V29.0781H121.43V19.3281H117.633C116.402 21.7539 114.41 23.875 111.422 25.6094L109.945 23.7578ZM174.586 10.8438V12.8828C174.562 15.5195 174.562 18.4609 173.742 22.8906L171.117 22.6094C171.949 18.4844 171.949 15.4727 171.961 12.9297H159.305V10.8438H174.586ZM157.289 27.3438V25.2109H164.414V17.8516H166.992V25.2109H176.602V27.3438H157.289ZM203.039 19.5625V21.6484H183.727V19.5625H192.047V17.5234H186.234V9.41406H188.812V11.5234H197.953V9.41406H200.531V17.5234H194.672V19.5625H203.039ZM185.859 25.3984V23.3359H200.672V30.0859H198.07V25.3984H185.859ZM188.812 15.4375H197.953V13.4688H188.812V15.4375ZM223.781 19.0938V21.1797H204.469V19.0938H208.969V16.4102C207.363 15.7305 206.461 14.6641 206.461 13.2812C206.461 10.7383 209.426 9.25 214.102 9.25C218.766 9.25 221.73 10.7383 221.742 13.2812C221.73 14.6758 220.816 15.7422 219.211 16.4102V19.0938H223.781ZM206.719 26.2422C206.719 23.8047 209.473 22.4453 214.102 22.4688C218.66 22.4453 221.426 23.8047 221.438 26.2422C221.426 28.7031 218.66 30.0391 214.102 30.0391C209.473 30.0391 206.719 28.7031 206.719 26.2422ZM209.18 13.2812C209.156 14.5703 210.973 15.2617 214.102 15.25C217.219 15.2617 219.047 14.5703 219.047 13.2812C219.047 11.9805 217.219 11.2539 214.102 11.2656C210.973 11.2539 209.156 11.9805 209.18 13.2812ZM209.367 26.2422C209.355 27.4375 211.02 28.082 214.102 28.0703C217.137 28.082 218.812 27.4375 218.836 26.2422C218.812 25.0586 217.137 24.4492 214.102 24.4375C211.02 24.4492 209.355 25.0586 209.367 26.2422ZM211.594 19.0938H216.609V17.0781C215.848 17.1836 215.004 17.2422 214.102 17.2422C213.199 17.2422 212.355 17.1836 211.594 17.0781V19.0938ZM235.547 12.2734V14.3594H225.164V12.2734H229.102V9.50781H231.68V12.2734H235.547ZM225.773 20.4062C225.75 17.5234 227.707 15.4727 230.391 15.4844C233.086 15.4727 235.008 17.5234 235.008 20.4062C235.008 23.3477 233.086 25.3984 230.391 25.3984C227.707 25.3984 225.75 23.3477 225.773 20.4062ZM228.07 20.4062C228.059 22.1172 229.02 23.1836 230.391 23.1719C231.75 23.1836 232.711 22.1172 232.711 20.4062C232.711 18.7422 231.75 17.6406 230.391 17.6406C229.02 17.6406 228.059 18.7422 228.07 20.4062ZM236.438 29.125V9.34375H238.875V17.6172H240.938V8.89844H243.422V30.0859H240.938V19.7266H238.875V29.125H236.438ZM265.312 25.375V27.5078H245.953V25.375H250.43V20.0195C248.742 19.0469 247.723 17.5234 247.734 15.6484C247.723 12.2734 251.027 10.0469 255.586 10.0469C260.168 10.0469 263.496 12.2734 263.484 15.6484C263.496 17.5 262.5 18.9883 260.859 19.9609V25.375H265.312ZM250.289 15.6484C250.277 17.8164 252.422 19.1992 255.586 19.1875C258.738 19.1992 260.93 17.8164 260.93 15.6484C260.93 13.4453 258.738 12.0977 255.586 12.1094C252.422 12.0977 250.277 13.4453 250.289 15.6484ZM253.008 25.375H258.211V20.957C257.402 21.1328 256.523 21.2266 255.586 21.2266C254.672 21.2266 253.805 21.1328 253.008 20.9688V25.375Z" fill="#434343"/>
<circle cx="11" cy="2" r="2" fill="#205DF0"/>
<circle cx="145" cy="2" r="2" fill="#205DF0"/>
<defs>
<linearGradient id="paint0_linear_4535_9265" x1="156.639" y1="89.2982" x2="172.909" y2="122.944" gradientUnits="userSpaceOnUse">
<stop offset="0.0473059" stop-color="#C1D2FF"/>
<stop offset="1" stop-color="#5086FF"/>
</linearGradient>
<linearGradient id="paint1_linear_4535_9265" x1="178.228" y1="91.3586" x2="194.607" y2="108.009" gradientUnits="userSpaceOnUse">
<stop stop-color="#5589FF"/>
<stop offset="0.510417" stop-color="#2666F6"/>
<stop offset="1" stop-color="#1752E9"/>
</linearGradient>
</defs>
</svg>
