<svg width="24" height="24" viewBox="0 0 24 24" fill="none" xmlns="http://www.w3.org/2000/svg">
<path d="M8.17985 5.32031V6.40189C8.17985 6.93232 7.96914 7.44103 7.59406 7.8161L5.90564 9.50453C5.53056 9.8796 5.31985 10.3883 5.31985 10.9187V20.5903C5.31853 20.8415 5.36702 21.0905 5.46254 21.3228C5.55806 21.5551 5.6987 21.7662 5.87632 21.9438C6.05395 22.1215 6.26503 22.2621 6.49736 22.3576C6.72969 22.4531 6.97866 22.5016 7.22985 22.5003H16.7699C17.021 22.5016 17.27 22.4531 17.5023 22.3576C17.7347 22.2621 17.9458 22.1215 18.1234 21.9438C18.301 21.7662 18.4416 21.5551 18.5372 21.3228C18.6327 21.0905 18.6812 20.8415 18.6799 20.5903V10.9187C18.6799 10.3883 18.4691 9.8796 18.0941 9.50453L16.4056 7.8161C16.0306 7.44103 15.8198 6.93232 15.8198 6.40189V5.32031" stroke="#464655" stroke-width="1.5" stroke-miterlimit="10" stroke-linejoin="round"/>
<path d="M14.87 1.5H9.13998C8.08512 1.5 7.22998 2.35514 7.22998 3.41C7.22998 4.46486 8.08512 5.32 9.13998 5.32H14.87C15.9248 5.32 16.78 4.46486 16.78 3.41C16.78 2.35514 15.9248 1.5 14.87 1.5Z" stroke="#464655" stroke-width="1.5" stroke-miterlimit="10"/>
<path d="M9.87891 12.8789L14.1215 17.1215" stroke="#464655" stroke-width="1.5" stroke-miterlimit="10" stroke-linecap="round"/>
<path d="M14.1211 12.8789L9.87845 17.1215" stroke="#464655" stroke-width="1.5" stroke-miterlimit="10" stroke-linecap="round"/>
</svg>
