<svg width="252" height="252" viewBox="0 0 252 252" fill="none" xmlns="http://www.w3.org/2000/svg">
<rect x="1" width="251" height="252" fill="white"/>
<g clip-path="url(#clip0_4535_9345)">
<path d="M61.3071 52C61.3071 52 51 52.8597 51 67.1725V78H74V52H61.284H61.3071Z" fill="url(#paint0_linear_4535_9345)"/>
<path d="M76.5333 52C76.5333 52 73.6755 52 73.6525 52H61C61.6223 52 68.5362 52.3709 71.9471 60.4141C73.4681 64.0069 73.6525 67.6229 73.6525 69.5931C73.6525 69.5931 73.6525 188.341 73.6525 182.523C73.6525 184.447 73.7908 188.086 75.2197 191.679C78.354 199.606 84.6918 199.977 85.2679 200H189V69.5931V52C170.538 52 79.2758 52 76.5333 52Z" fill="url(#paint1_linear_4535_9345)"/>
<g filter="url(#filter0_i_4535_9345)">
<path fill-rule="evenodd" clip-rule="evenodd" d="M89 143.5C89 141.567 90.567 140 92.5 140H127.5C129.433 140 131 141.567 131 143.5C131 145.433 129.433 147 127.5 147H92.5C90.567 147 89 145.433 89 143.5Z" fill="white"/>
</g>
<g filter="url(#filter1_i_4535_9345)">
<path fill-rule="evenodd" clip-rule="evenodd" d="M89 159.5C89 157.567 90.567 156 92.5 156H127.5C129.433 156 131 157.567 131 159.5C131 161.433 129.433 163 127.5 163H92.5C90.567 163 89 161.433 89 159.5Z" fill="white"/>
</g>
<g filter="url(#filter2_ii_4535_9345)">
<path d="M110 95C117.191 95 123 89.191 123 82C123 74.809 117.168 69 110 69C102.832 69 97 74.809 97 82C97 89.191 102.832 95 110 95Z" fill="#5588FD"/>
</g>
<g filter="url(#filter3_ii_4535_9345)">
<path d="M129.769 106.699C126.478 99.3478 118.691 99 118.691 99H110.07C110.07 99 110.046 99 110 99C109.954 99 109.93 99 109.93 99H101.309C101.309 99 93.4989 99.3478 90.2311 106.699C86.9402 114.049 90.5788 116.762 97.207 120.009C100.776 121.748 105.203 122.977 110 123C114.797 122.977 119.224 121.748 122.793 120.009C129.421 116.762 133.06 114.072 129.769 106.699Z" fill="#5588FD"/>
</g>
<g filter="url(#filter4_ii_4535_9345)">
<path d="M152.122 87.7251C157.961 85.0741 169.227 80.8418 183.973 81.0046C197.369 81.1441 207.673 84.8416 213.42 87.3531L218 128.397C217.588 132.351 215.802 144.42 206.001 154.977C197.529 164.093 187.728 167.023 183.744 168C179.668 167.07 169.593 164.21 160.709 155.047C151.16 145.21 148.71 134.025 148 129.909C149.374 115.84 150.771 101.794 152.145 87.7251H152.122Z" fill="#2666F6"/>
</g>
<g filter="url(#filter5_di_4535_9345)">
<path fill-rule="evenodd" clip-rule="evenodd" d="M198.98 113.02C200.34 114.381 200.34 116.587 198.98 117.948L183.951 132.98C182.591 134.34 180.385 134.34 179.025 132.98L169.02 122.973C167.66 121.613 167.66 119.407 169.02 118.046C170.381 116.685 172.586 116.685 173.947 118.046L181.488 125.589L194.053 113.02C195.414 111.66 197.619 111.66 198.98 113.02Z" fill="white"/>
</g>
<path d="M95.9829 188C95.9829 197.905 85 200 85 200H188.612C201.253 200 201 188 201 188H95.9829Z" fill="url(#paint2_linear_4535_9345)"/>
<path d="M23.6392 163.153C19.2805 162.296 15.0409 165.128 14.1596 169.483C13.2784 173.837 16.1365 178.073 20.4952 178.954L30.856 181L34 165.199L23.6392 163.153Z" fill="url(#paint3_linear_4535_9345)"/>
<path d="M49.847 176.517C50.7047 172.163 47.8695 167.927 43.5093 167.046L33.145 165L30 180.801L40.3643 182.847C44.7244 183.704 48.9654 180.872 49.847 176.517Z" fill="url(#paint4_linear_4535_9345)"/>
<g filter="url(#filter6_i_4535_9345)">
<path d="M45.5 143C50.1944 143 54 139.194 54 134.5C54 129.806 50.1944 126 45.5 126C40.8056 126 37 129.806 37 134.5C37 139.194 40.8056 143 45.5 143Z" fill="#5588FD"/>
</g>
<g filter="url(#filter7_i_4535_9345)">
<path d="M239.5 106C244.194 106 248 102.194 248 97.5C248 92.8056 244.194 89 239.5 89C234.806 89 231 92.8056 231 97.5C231 102.194 234.806 106 239.5 106Z" fill="#DDE7FD"/>
</g>
<g filter="url(#filter8_i_4535_9345)">
<path d="M13.7131 118.8C16.196 116.606 15.6977 111.967 12.6001 108.44C9.5025 104.913 4.9786 103.832 2.4957 106.027C0.0127924 108.221 0.511107 112.86 3.60871 116.387C6.70632 119.914 11.2302 120.995 13.7131 118.8Z" fill="#DDE7FD"/>
</g>
<g filter="url(#filter9_i_4535_9345)">
<path d="M241.82 71.0456C245.889 68.704 247.743 64.2795 245.961 61.1631C244.179 58.0468 239.436 57.4187 235.367 59.7602C231.298 62.1018 229.445 66.5263 231.226 69.6427C233.008 72.759 237.751 73.3871 241.82 71.0456Z" fill="#5588FD"/>
</g>
</g>
<defs>
<filter id="filter0_i_4535_9345" x="89" y="139" width="42" height="8" filterUnits="userSpaceOnUse" color-interpolation-filters="sRGB">
<feFlood flood-opacity="0" result="BackgroundImageFix"/>
<feBlend mode="normal" in="SourceGraphic" in2="BackgroundImageFix" result="shape"/>
<feColorMatrix in="SourceAlpha" type="matrix" values="0 0 0 0 0 0 0 0 0 0 0 0 0 0 0 0 0 0 127 0" result="hardAlpha"/>
<feOffset dy="-1"/>
<feGaussianBlur stdDeviation="0.5"/>
<feComposite in2="hardAlpha" operator="arithmetic" k2="-1" k3="1"/>
<feColorMatrix type="matrix" values="0 0 0 0 0.85 0 0 0 0 0.894445 0 0 0 0 1 0 0 0 1 0"/>
<feBlend mode="normal" in2="shape" result="effect1_innerShadow_4535_9345"/>
</filter>
<filter id="filter1_i_4535_9345" x="89" y="155" width="42" height="8" filterUnits="userSpaceOnUse" color-interpolation-filters="sRGB">
<feFlood flood-opacity="0" result="BackgroundImageFix"/>
<feBlend mode="normal" in="SourceGraphic" in2="BackgroundImageFix" result="shape"/>
<feColorMatrix in="SourceAlpha" type="matrix" values="0 0 0 0 0 0 0 0 0 0 0 0 0 0 0 0 0 0 127 0" result="hardAlpha"/>
<feOffset dy="-1"/>
<feGaussianBlur stdDeviation="0.5"/>
<feComposite in2="hardAlpha" operator="arithmetic" k2="-1" k3="1"/>
<feColorMatrix type="matrix" values="0 0 0 0 0.85 0 0 0 0 0.894445 0 0 0 0 1 0 0 0 1 0"/>
<feBlend mode="normal" in2="shape" result="effect1_innerShadow_4535_9345"/>
</filter>
<filter id="filter2_ii_4535_9345" x="96" y="68" width="28" height="28" filterUnits="userSpaceOnUse" color-interpolation-filters="sRGB">
<feFlood flood-opacity="0" result="BackgroundImageFix"/>
<feBlend mode="normal" in="SourceGraphic" in2="BackgroundImageFix" result="shape"/>
<feColorMatrix in="SourceAlpha" type="matrix" values="0 0 0 0 0 0 0 0 0 0 0 0 0 0 0 0 0 0 127 0" result="hardAlpha"/>
<feOffset dx="1" dy="1"/>
<feGaussianBlur stdDeviation="0.5"/>
<feComposite in2="hardAlpha" operator="arithmetic" k2="-1" k3="1"/>
<feColorMatrix type="matrix" values="0 0 0 0 0.4375 0 0 0 0 0.610873 0 0 0 0 1 0 0 0 1 0"/>
<feBlend mode="normal" in2="shape" result="effect1_innerShadow_4535_9345"/>
<feColorMatrix in="SourceAlpha" type="matrix" values="0 0 0 0 0 0 0 0 0 0 0 0 0 0 0 0 0 0 127 0" result="hardAlpha"/>
<feOffset dx="-1" dy="-1"/>
<feGaussianBlur stdDeviation="1"/>
<feComposite in2="hardAlpha" operator="arithmetic" k2="-1" k3="1"/>
<feColorMatrix type="matrix" values="0 0 0 0 0.225 0 0 0 0 0.453977 0 0 0 0 1 0 0 0 1 0"/>
<feBlend mode="normal" in2="effect1_innerShadow_4535_9345" result="effect2_innerShadow_4535_9345"/>
</filter>
<filter id="filter3_ii_4535_9345" x="88" y="98" width="44" height="26" filterUnits="userSpaceOnUse" color-interpolation-filters="sRGB">
<feFlood flood-opacity="0" result="BackgroundImageFix"/>
<feBlend mode="normal" in="SourceGraphic" in2="BackgroundImageFix" result="shape"/>
<feColorMatrix in="SourceAlpha" type="matrix" values="0 0 0 0 0 0 0 0 0 0 0 0 0 0 0 0 0 0 127 0" result="hardAlpha"/>
<feOffset dx="1" dy="1"/>
<feGaussianBlur stdDeviation="0.5"/>
<feComposite in2="hardAlpha" operator="arithmetic" k2="-1" k3="1"/>
<feColorMatrix type="matrix" values="0 0 0 0 0.4375 0 0 0 0 0.610873 0 0 0 0 1 0 0 0 1 0"/>
<feBlend mode="normal" in2="shape" result="effect1_innerShadow_4535_9345"/>
<feColorMatrix in="SourceAlpha" type="matrix" values="0 0 0 0 0 0 0 0 0 0 0 0 0 0 0 0 0 0 127 0" result="hardAlpha"/>
<feOffset dx="-1" dy="-1"/>
<feGaussianBlur stdDeviation="1"/>
<feComposite in2="hardAlpha" operator="arithmetic" k2="-1" k3="1"/>
<feColorMatrix type="matrix" values="0 0 0 0 0.225 0 0 0 0 0.453977 0 0 0 0 1 0 0 0 1 0"/>
<feBlend mode="normal" in2="effect1_innerShadow_4535_9345" result="effect2_innerShadow_4535_9345"/>
</filter>
<filter id="filter4_ii_4535_9345" x="147" y="80" width="72" height="89" filterUnits="userSpaceOnUse" color-interpolation-filters="sRGB">
<feFlood flood-opacity="0" result="BackgroundImageFix"/>
<feBlend mode="normal" in="SourceGraphic" in2="BackgroundImageFix" result="shape"/>
<feColorMatrix in="SourceAlpha" type="matrix" values="0 0 0 0 0 0 0 0 0 0 0 0 0 0 0 0 0 0 127 0" result="hardAlpha"/>
<feOffset dx="1" dy="1"/>
<feGaussianBlur stdDeviation="1"/>
<feComposite in2="hardAlpha" operator="arithmetic" k2="-1" k3="1"/>
<feColorMatrix type="matrix" values="0 0 0 0 0.6625 0 0 0 0 0.778879 0 0 0 0 1 0 0 0 0.82 0"/>
<feBlend mode="normal" in2="shape" result="effect1_innerShadow_4535_9345"/>
<feColorMatrix in="SourceAlpha" type="matrix" values="0 0 0 0 0 0 0 0 0 0 0 0 0 0 0 0 0 0 127 0" result="hardAlpha"/>
<feOffset dx="-1" dy="-1"/>
<feGaussianBlur stdDeviation="2"/>
<feComposite in2="hardAlpha" operator="arithmetic" k2="-1" k3="1"/>
<feColorMatrix type="matrix" values="0 0 0 0 0 0 0 0 0 0.259794 0 0 0 0 0.9 0 0 0 1 0"/>
<feBlend mode="normal" in2="effect1_innerShadow_4535_9345" result="effect2_innerShadow_4535_9345"/>
</filter>
<filter id="filter5_di_4535_9345" x="165" y="109" width="38" height="28" filterUnits="userSpaceOnUse" color-interpolation-filters="sRGB">
<feFlood flood-opacity="0" result="BackgroundImageFix"/>
<feColorMatrix in="SourceAlpha" type="matrix" values="0 0 0 0 0 0 0 0 0 0 0 0 0 0 0 0 0 0 127 0" result="hardAlpha"/>
<feOffset/>
<feGaussianBlur stdDeviation="1.5"/>
<feComposite in2="hardAlpha" operator="out"/>
<feColorMatrix type="matrix" values="0 0 0 0 1 0 0 0 0 1 0 0 0 0 1 0 0 0 0.49 0"/>
<feBlend mode="normal" in2="BackgroundImageFix" result="effect1_dropShadow_4535_9345"/>
<feBlend mode="normal" in="SourceGraphic" in2="effect1_dropShadow_4535_9345" result="shape"/>
<feColorMatrix in="SourceAlpha" type="matrix" values="0 0 0 0 0 0 0 0 0 0 0 0 0 0 0 0 0 0 127 0" result="hardAlpha"/>
<feOffset dy="-1"/>
<feGaussianBlur stdDeviation="0.5"/>
<feComposite in2="hardAlpha" operator="arithmetic" k2="-1" k3="1"/>
<feColorMatrix type="matrix" values="0 0 0 0 0.629167 0 0 0 0 0.73412 0 0 0 0 1 0 0 0 1 0"/>
<feBlend mode="normal" in2="shape" result="effect2_innerShadow_4535_9345"/>
</filter>
<filter id="filter6_i_4535_9345" x="37" y="126" width="17" height="18" filterUnits="userSpaceOnUse" color-interpolation-filters="sRGB">
<feFlood flood-opacity="0" result="BackgroundImageFix"/>
<feBlend mode="normal" in="SourceGraphic" in2="BackgroundImageFix" result="shape"/>
<feColorMatrix in="SourceAlpha" type="matrix" values="0 0 0 0 0 0 0 0 0 0 0 0 0 0 0 0 0 0 127 0" result="hardAlpha"/>
<feOffset dy="1"/>
<feGaussianBlur stdDeviation="1"/>
<feComposite in2="hardAlpha" operator="arithmetic" k2="-1" k3="1"/>
<feColorMatrix type="matrix" values="0 0 0 0 1 0 0 0 0 1 0 0 0 0 1 0 0 0 0.55 0"/>
<feBlend mode="normal" in2="shape" result="effect1_innerShadow_4535_9345"/>
</filter>
<filter id="filter7_i_4535_9345" x="231" y="88" width="17" height="18" filterUnits="userSpaceOnUse" color-interpolation-filters="sRGB">
<feFlood flood-opacity="0" result="BackgroundImageFix"/>
<feBlend mode="normal" in="SourceGraphic" in2="BackgroundImageFix" result="shape"/>
<feColorMatrix in="SourceAlpha" type="matrix" values="0 0 0 0 0 0 0 0 0 0 0 0 0 0 0 0 0 0 127 0" result="hardAlpha"/>
<feOffset dy="-1"/>
<feGaussianBlur stdDeviation="1"/>
<feComposite in2="hardAlpha" operator="arithmetic" k2="-1" k3="1"/>
<feColorMatrix type="matrix" values="0 0 0 0 0.675 0 0 0 0 0.775 0 0 0 0 1 0 0 0 0.93 0"/>
<feBlend mode="normal" in2="shape" result="effect1_innerShadow_4535_9345"/>
</filter>
<filter id="filter8_i_4535_9345" x="0.916016" y="102.891" width="14.377" height="17.0459" filterUnits="userSpaceOnUse" color-interpolation-filters="sRGB">
<feFlood flood-opacity="0" result="BackgroundImageFix"/>
<feBlend mode="normal" in="SourceGraphic" in2="BackgroundImageFix" result="shape"/>
<feColorMatrix in="SourceAlpha" type="matrix" values="0 0 0 0 0 0 0 0 0 0 0 0 0 0 0 0 0 0 127 0" result="hardAlpha"/>
<feOffset dy="-2"/>
<feGaussianBlur stdDeviation="1"/>
<feComposite in2="hardAlpha" operator="arithmetic" k2="-1" k3="1"/>
<feColorMatrix type="matrix" values="0 0 0 0 0.770833 0 0 0 0 0.840856 0 0 0 0 1 0 0 0 1 0"/>
<feBlend mode="normal" in2="shape" result="effect1_innerShadow_4535_9345"/>
</filter>
<filter id="filter9_i_4535_9345" x="230.549" y="58.3447" width="16.0898" height="15.1162" filterUnits="userSpaceOnUse" color-interpolation-filters="sRGB">
<feFlood flood-opacity="0" result="BackgroundImageFix"/>
<feBlend mode="normal" in="SourceGraphic" in2="BackgroundImageFix" result="shape"/>
<feColorMatrix in="SourceAlpha" type="matrix" values="0 0 0 0 0 0 0 0 0 0 0 0 0 0 0 0 0 0 127 0" result="hardAlpha"/>
<feOffset dy="1"/>
<feGaussianBlur stdDeviation="1"/>
<feComposite in2="hardAlpha" operator="arithmetic" k2="-1" k3="1"/>
<feColorMatrix type="matrix" values="0 0 0 0 1 0 0 0 0 1 0 0 0 0 1 0 0 0 0.55 0"/>
<feBlend mode="normal" in2="shape" result="effect1_innerShadow_4535_9345"/>
</filter>
<linearGradient id="paint0_linear_4535_9345" x1="62.5" y1="52" x2="62.5" y2="78" gradientUnits="userSpaceOnUse">
<stop stop-color="#AFC6FF"/>
<stop offset="1" stop-color="#D2DFFF"/>
</linearGradient>
<linearGradient id="paint1_linear_4535_9345" x1="160.167" y1="210.778" x2="160.167" y2="10.2772" gradientUnits="userSpaceOnUse">
<stop stop-color="#A4BEFF"/>
<stop offset="0.296879" stop-color="#CCDBFF"/>
<stop offset="0.598958" stop-color="#E1EBFD"/>
<stop offset="0.796875" stop-color="#D8E4FE"/>
<stop offset="1" stop-color="#B6C9FF"/>
</linearGradient>
<linearGradient id="paint2_linear_4535_9345" x1="143" y1="188" x2="143" y2="200" gradientUnits="userSpaceOnUse">
<stop stop-color="#F0F4FF"/>
<stop offset="0.09375" stop-color="#E0E9FF"/>
<stop offset="1" stop-color="#C8D8FF"/>
</linearGradient>
<linearGradient id="paint3_linear_4535_9345" x1="26.1881" y1="163.13" x2="22.6216" y2="178.599" gradientUnits="userSpaceOnUse">
<stop stop-color="#DFE9FD"/>
<stop offset="0.651042" stop-color="#C0D2FD"/>
<stop offset="1" stop-color="#A9C2FF"/>
</linearGradient>
<linearGradient id="paint4_linear_4535_9345" x1="43.2253" y1="167.691" x2="40.0077" y2="183.002" gradientUnits="userSpaceOnUse">
<stop stop-color="#97B6FF"/>
<stop offset="0.453125" stop-color="#5F90FF"/>
<stop offset="1" stop-color="#3876FF"/>
</linearGradient>
<clipPath id="clip0_4535_9345">
<rect width="252" height="150" fill="white" transform="translate(0 51)"/>
</clipPath>
</defs>
</svg>
