<svg fill="none" height="155" viewBox="0 0 223 155" xmlns="http://www.w3.org/2000/svg">
    <g clip-path="url(#clip0_2673_7812)">
        <path d="M68.3189 0.120117H0.970703V154.051H68.3189V0.120117Z" fill="#EFCED0" />
        <path
            d="M61.3636 12.9717H7.92586C6.42213 12.9717 5.20312 14.1099 5.20312 15.514V146.545C5.20312 147.949 6.42213 149.088 7.92586 149.088H61.3636C62.8674 149.088 64.0864 147.949 64.0864 146.545V15.514C64.0864 14.1099 62.8674 12.9717 61.3636 12.9717Z"
            fill="white" />
        <path d="M99.038 37.6143H73.2998V41.547H99.038V37.6143Z" fill="#C7C6D0" />
        <path d="M168.905 37.6143H107.16V39.8216H168.905V37.6143Z" fill="#C7C6D0" />
        <path d="M26.5024 17.5234H10.0576V19.7308H26.5024V17.5234Z" fill="#C7C6D0" />
        <path d="M26.5024 21.835H10.0576V24.0423H26.5024V21.835Z" fill="#C7C6D0" />
        <path d="M26.5024 26.1465H10.0576V28.3538H26.5024V26.1465Z" fill="#C7C6D0" />
        <path d="M26.5024 30.457H10.0576V32.6644H26.5024V30.457Z" fill="#C7C6D0" />
        <path d="M61.113 21.835H51.8867V24.0423H61.113V21.835Z" fill="#C7C6D0" />
        <path d="M61.113 26.1465H51.8867V28.3538H61.113V26.1465Z" fill="#C7C6D0" />
        <path d="M61.113 30.457H51.8867V32.6644H61.113V30.457Z" fill="#C7C6D0" />
        <path d="M26.5024 34.7656H10.0576V36.973H26.5024V34.7656Z" fill="#C7C6D0" />
        <path d="M26.5024 102.863H10.0576V105.071H26.5024V102.863Z" fill="#C7C6D0" />
        <path d="M38.3972 98.9883H10.0576V101.196H38.3972V98.9883Z" fill="#C7C6D0" />
        <path d="M50.8552 98.9883H42.7051V101.196H50.8552V98.9883Z" fill="#C7C6D0" />
        <path d="M57.3839 98.9883H53.4121V101.196H57.3839V98.9883Z" fill="#C7C6D0" />
        <path d="M62.7572 98.9883H58.7363V101.196H62.7572V98.9883Z" fill="#C7C6D0" />
        <path d="M26.5024 107.175H10.0576V109.382H26.5024V107.175Z" fill="#C7C6D0" />
        <path d="M26.5024 111.485H10.0576V113.693H26.5024V111.485Z" fill="#C7C6D0" />
        <path d="M26.5024 115.794H10.0576V118.001H26.5024V115.794Z" fill="#C7C6D0" />
        <path d="M26.5024 120.105H10.0576V122.313H26.5024V120.105Z" fill="#C7C6D0" />
        <path d="M26.5024 124.416H10.0576V126.623H26.5024V124.416Z" fill="#C7C6D0" />
        <path d="M26.5024 128.728H10.0576V130.935H26.5024V128.728Z" fill="#C7C6D0" />
        <path d="M47.9356 102.863H45.5381V105.071H47.9356V102.863Z" fill="#C7C6D0" />
        <path d="M47.9356 107.175H45.5381V109.382H47.9356V107.175Z" fill="#C7C6D0" />
        <path d="M47.9356 111.485H45.5381V113.693H47.9356V111.485Z" fill="#C7C6D0" />
        <path d="M47.9356 115.794H45.5381V118.001H47.9356V115.794Z" fill="#C7C6D0" />
        <path d="M47.9356 120.105H45.5381V122.313H47.9356V120.105Z" fill="#C7C6D0" />
        <path d="M47.9356 124.416H45.5381V126.623H47.9356V124.416Z" fill="#C7C6D0" />
        <path d="M47.9356 128.728H45.5381V130.935H47.9356V128.728Z" fill="#C7C6D0" />
        <path d="M56.6798 102.863H54.2822V105.071H56.6798V102.863Z" fill="#C7C6D0" />
        <path d="M56.6798 107.175H54.2822V109.382H56.6798V107.175Z" fill="#C7C6D0" />
        <path d="M56.6798 111.485H54.2822V113.693H56.6798V111.485Z" fill="#C7C6D0" />
        <path d="M56.6798 115.794H54.2822V118.001H56.6798V115.794Z" fill="#C7C6D0" />
        <path d="M56.6798 120.105H54.2822V122.313H56.6798V120.105Z" fill="#C7C6D0" />
        <path d="M56.6798 124.416H54.2822V126.623H56.6798V124.416Z" fill="#C7C6D0" />
        <path d="M56.6798 128.728H54.2822V130.935H56.6798V128.728Z" fill="#C7C6D0" />
        <path d="M62.2052 102.863H59.8076V105.071H62.2052V102.863Z" fill="#C7C6D0" />
        <path d="M62.2052 107.175H59.8076V109.382H62.2052V107.175Z" fill="#C7C6D0" />
        <path d="M62.2052 111.485H59.8076V113.693H62.2052V111.485Z" fill="#C7C6D0" />
        <path d="M62.2052 115.794H59.8076V118.001H62.2052V115.794Z" fill="#C7C6D0" />
        <path d="M62.2052 120.105H59.8076V122.313H62.2052V120.105Z" fill="#C7C6D0" />
        <path d="M62.2052 124.416H59.8076V126.623H62.2052V124.416Z" fill="#C7C6D0" />
        <path d="M62.2052 128.728H59.8076V130.935H62.2052V128.728Z" fill="#C7C6D0" />
        <path d="M22.5151 44.123H10.0576V46.3304H22.5151V44.123Z" fill="#C7C6D0" />
        <path d="M37.9536 39.9971H25.4961V42.2044H37.9536V39.9971Z" fill="#C7C6D0" />
        <path d="M37.9536 44.123H25.4961V46.3304H37.9536V44.123Z" fill="#C7C6D0" />
        <path d="M37.9536 48.251H25.4961V50.4583H37.9536V48.251Z" fill="#C7C6D0" />
        <path d="M37.9536 52.376H25.4961V54.5833H37.9536V52.376Z" fill="#C7C6D0" />
        <path d="M22.5151 63.71H10.0576V65.9173H22.5151V63.71Z" fill="#C7C6D0" />
        <path d="M41.561 63.71H29.1035V65.9173H41.561V63.71Z" fill="#C7C6D0" />
        <path d="M57.518 67.1963H29.1035V69.4036H57.518V67.1963Z" fill="#C7C6D0" />
        <path d="M54.2817 70.8789H29.1035V73.0863H54.2817V70.8789Z" fill="#C7C6D0" />
        <path d="M41.561 74.5586H29.1035V76.7659H41.561V74.5586Z" fill="#C7C6D0" />
        <path d="M41.561 78.2402H29.1035V80.4476H41.561V78.2402Z" fill="#C7C6D0" />
        <path d="M39.1118 81.9199H29.1035V84.1273H39.1118V81.9199Z" fill="#C7C6D0" />
        <path d="M22.5151 69.7744H10.0576V71.9818H22.5151V69.7744Z" fill="#C7C6D0" />
        <path d="M61.1106 52.376H51.6133V54.5833H61.1106V52.376Z" fill="#C7C6D0" />
        <path d="M20.3915 47.959H12.1846V50.1663H20.3915V47.959Z" fill="#C7C6D0" />
        <path d="M162.309 41.1006H107.16V43.3079H162.309V41.1006Z" fill="#C7C6D0" />
        <path d="M99.038 50.1113H73.2998V54.0441H99.038V50.1113Z" fill="#C7C6D0" />
        <path d="M168.905 50.1113H107.16V52.3187H168.905V50.1113Z" fill="#C7C6D0" />
        <path d="M162.309 53.5977H107.16V55.805H162.309V53.5977Z" fill="#C7C6D0" />
        <path d="M99.038 62.6055H73.2998V66.5382H99.038V62.6055Z" fill="#C7C6D0" />
        <path d="M168.905 62.6055H107.16V64.8128H168.905V62.6055Z" fill="#C7C6D0" />
        <path d="M162.309 66.0928H107.16V68.3001H162.309V66.0928Z" fill="#C7C6D0" />
        <path d="M99.038 75.1025H73.2998V79.0353H99.038V75.1025Z" fill="#C7C6D0" />
        <path d="M168.905 75.1025H107.16V77.3099H168.905V75.1025Z" fill="#C7C6D0" />
        <path d="M162.309 78.5898H107.16V80.7972H162.309V78.5898Z" fill="#C7C6D0" />
        <path d="M99.038 87.5977H73.2998V91.5304H99.038V87.5977Z" fill="#C7C6D0" />
        <path d="M168.905 87.5977H107.16V89.805H168.905V87.5977Z" fill="#C7C6D0" />
        <path d="M162.309 91.085H107.16V93.2923H162.309V91.085Z" fill="#C7C6D0" />
        <path d="M99.038 100.092H73.2998V104.025H99.038V100.092Z" fill="#C7C6D0" />
        <path d="M168.905 100.092H107.16V102.299H168.905V100.092Z" fill="#C7C6D0" />
        <path d="M162.309 103.579H107.16V105.786H162.309V103.579Z" fill="#C7C6D0" />
        <path d="M99.038 112.589H73.2998V116.522H99.038V112.589Z" fill="#C7C6D0" />
        <path d="M168.905 112.589H107.16V114.796H168.905V112.589Z" fill="#C7C6D0" />
        <path d="M162.309 116.076H107.16V118.284H162.309V116.076Z" fill="#C7C6D0" />
        <path d="M216.551 34.9414H195.825V44.7058H216.551V34.9414Z" fill="#C1D3FF" />
        <path d="M216.551 47.4365H195.825V57.2009H216.551V47.4365Z" fill="#C1D3FF" />
        <path d="M216.551 59.9336H195.825V69.698H216.551V59.9336Z" fill="#C1D3FF" />
        <path d="M216.551 72.4277H195.825V82.1921H216.551V72.4277Z" fill="#C1D3FF" />
        <path d="M216.551 84.9248H195.825V94.6892H216.551V84.9248Z" fill="#C1D3FF" />
        <path d="M216.551 97.4199H195.825V107.184H216.551V97.4199Z" fill="#C1D3FF" />
        <path d="M216.551 109.914H195.825V119.678H216.551V109.914Z" fill="#C1D3FF" />
        <path d="M222.062 26.165H68.3193V33.6618H222.062V26.165Z" fill="#EFCED0" />
        <path d="M89.9304 19.1719H73.2998V22.0516H89.9304V19.1719Z" fill="#C7C6D0" />
        <path d="M29.8192 6.63672H6.76758V9.93087H29.8192V6.63672Z" fill="white" />
        <path d="M115.749 19.1719H91.8789V22.0516H115.749V19.1719Z" fill="#C7C6D0" />
        <path d="M188.013 21.0205H164.144V24.3147H188.013V21.0205Z" fill="#C7C6D0" />
        <path d="M179.77 16.2656H164.144V19.5598H179.77V16.2656Z" fill="#C7C6D0" />
        <path
            d="M220.062 0.120117H2.9707C1.86613 0.120117 0.970703 1.01555 0.970703 2.12012V152.051C0.970703 153.156 1.86614 154.051 2.97071 154.051H220.062C221.166 154.051 222.062 153.156 222.062 152.051V2.12012C222.062 1.01555 221.166 0.120117 220.062 0.120117Z"
            stroke="#90909F" stroke-miterlimit="10" stroke-width="2" />
        <path
            d="M202.231 41.9034C203.461 41.9034 204.458 40.9723 204.458 39.8238C204.458 38.6752 203.461 37.7441 202.231 37.7441C201.001 37.7441 200.004 38.6752 200.004 39.8238C200.004 40.9723 201.001 41.9034 202.231 41.9034Z"
            fill="white" />
        <path
            d="M209.793 41.9034C211.023 41.9034 212.02 40.9723 212.02 39.8238C212.02 38.6752 211.023 37.7441 209.793 37.7441C208.563 37.7441 207.565 38.6752 207.565 39.8238C207.565 40.9723 208.563 41.9034 209.793 41.9034Z"
            fill="white" />
        <path
            d="M202.231 66.8956C203.461 66.8956 204.458 65.9645 204.458 64.816C204.458 63.6674 203.461 62.7363 202.231 62.7363C201.001 62.7363 200.004 63.6674 200.004 64.816C200.004 65.9645 201.001 66.8956 202.231 66.8956Z"
            fill="white" />
        <path
            d="M209.793 66.8956C211.023 66.8956 212.02 65.9645 212.02 64.816C212.02 63.6674 211.023 62.7363 209.793 62.7363C208.563 62.7363 207.565 63.6674 207.565 64.816C207.565 65.9645 208.563 66.8956 209.793 66.8956Z"
            fill="white" />
        <path
            d="M202.231 79.1661C203.461 79.1661 204.458 78.235 204.458 77.0865C204.458 75.9379 203.461 75.0068 202.231 75.0068C201.001 75.0068 200.004 75.9379 200.004 77.0865C200.004 78.235 201.001 79.1661 202.231 79.1661Z"
            fill="white" />
        <path
            d="M209.793 79.1661C211.023 79.1661 212.02 78.235 212.02 77.0865C212.02 75.9379 211.023 75.0068 209.793 75.0068C208.563 75.0068 207.565 75.9379 207.565 77.0865C207.565 78.235 208.563 79.1661 209.793 79.1661Z"
            fill="white" />
        <path
            d="M203.782 50.9834H199.767C199.021 50.9834 198.417 51.5477 198.417 52.2437V52.3955C198.417 53.0916 199.021 53.6558 199.767 53.6558H203.782C204.528 53.6558 205.132 53.0916 205.132 52.3955V52.2437C205.132 51.5477 204.528 50.9834 203.782 50.9834Z"
            fill="white" />
        <path
            d="M212.613 50.9834H208.598C207.852 50.9834 207.248 51.5477 207.248 52.2437V52.3955C207.248 53.0916 207.852 53.6558 208.598 53.6558H212.613C213.359 53.6558 213.963 53.0916 213.963 52.3955V52.2437C213.963 51.5477 213.359 50.9834 212.613 50.9834Z"
            fill="white" />
        <path
            d="M203.782 88.4697H199.767C199.021 88.4697 198.417 89.034 198.417 89.73V89.8818C198.417 90.5779 199.021 91.1422 199.767 91.1422H203.782C204.528 91.1422 205.132 90.5779 205.132 89.8818V89.73C205.132 89.034 204.528 88.4697 203.782 88.4697Z"
            fill="white" />
        <path
            d="M212.613 88.4697H208.598C207.852 88.4697 207.248 89.034 207.248 89.73V89.8818C207.248 90.5779 207.852 91.1422 208.598 91.1422H212.613C213.359 91.1422 213.963 90.5779 213.963 89.8818V89.73C213.963 89.034 213.359 88.4697 212.613 88.4697Z"
            fill="white" />
        <path
            d="M203.782 100.965H199.767C199.021 100.965 198.417 101.529 198.417 102.225V102.377C198.417 103.073 199.021 103.637 199.767 103.637H203.782C204.528 103.637 205.132 103.073 205.132 102.377V102.225C205.132 101.529 204.528 100.965 203.782 100.965Z"
            fill="white" />
        <path
            d="M212.613 100.965H208.598C207.852 100.965 207.248 101.529 207.248 102.225V102.377C207.248 103.073 207.852 103.637 208.598 103.637H212.613C213.359 103.637 213.963 103.073 213.963 102.377V102.225C213.963 101.529 213.359 100.965 212.613 100.965Z"
            fill="white" />
        <path
            d="M203.782 113.462H199.767C199.021 113.462 198.417 114.026 198.417 114.722V114.874C198.417 115.57 199.021 116.134 199.767 116.134H203.782C204.528 116.134 205.132 115.57 205.132 114.874V114.722C205.132 114.026 204.528 113.462 203.782 113.462Z"
            fill="white" />
        <path
            d="M212.613 113.462H208.598C207.852 113.462 207.248 114.026 207.248 114.722V114.874C207.248 115.57 207.852 116.134 208.598 116.134H212.613C213.359 116.134 213.963 115.57 213.963 114.874V114.722C213.963 114.026 213.359 113.462 212.613 113.462Z"
            fill="white" />
        <ellipse cx="77.1177" cy="11.5" fill="#C7C6D0" rx="4.4868" ry="4.5" />
        <ellipse cx="87.0884" cy="11.5" fill="#C7C6D0" rx="4.4868" ry="4.5" />
        <path
            d="M99.534 7H101.194V8.05824H102.337V9.31429H101.194V10.0264H102.337V11.2824H101.194V12.2912H99.534V7ZM93.5693 9.70989C93.5693 8.41429 94.7221 7.46484 96.2344 7.46484C97.7467 7.46484 98.9101 8.41429 98.9101 9.70989C98.9101 11.0055 97.7467 11.9451 96.2344 11.9451C94.7221 11.9451 93.5693 11.0055 93.5693 9.70989ZM94.6798 13.844V12.6176H101.194V16H99.534V13.844H94.6798ZM95.1768 9.70989C95.1768 10.333 95.6422 10.6495 96.2344 10.6495C96.8372 10.6495 97.292 10.333 97.292 9.70989C97.292 9.07692 96.8372 8.77033 96.2344 8.77033C95.6422 8.77033 95.1768 9.07692 95.1768 9.70989Z"
            fill="#C7C6D0" />
        <path
            d="M103.86 7.36593H110.554V8.10769C110.554 8.77033 110.554 9.51209 110.385 10.4022H111.517V11.6286H107.984V12.6967H110.544V16H108.894V13.9033H103.669V12.6967H106.324V11.6286H102.813V10.4022H108.735C108.883 9.69011 108.915 9.11648 108.926 8.58242H103.86V7.36593Z"
            fill="#C7C6D0" />
    </g>
    <defs>
        <clipPath id="clip0_2673_7812">
            <rect fill="white" height="154.172" rx="2" width="221.349" x="0.841797" />
        </clipPath>
    </defs>
</svg>
