<svg viewBox="0 0 610 610" fill="none" xmlns="http://www.w3.org/2000/svg">
    <g clip-path="url(#clip0_3198_7371)">
        <path d="M441.87 0H167.62C75.046 0 0 75.046 0 167.62V441.87C0 534.444 75.046 609.49 167.62 609.49H441.87C534.444 609.49 609.49 534.444 609.49 441.87V167.62C609.49 75.046 534.444 0 441.87 0Z"
              fill="#F7FAFD"/>
        <path d="M131.06 358.301L226.267 447.831C258.739 478.368 309.816 476.8 340.351 444.329C370.885 411.859 369.314 360.782 336.842 330.246L241.635 240.716C209.163 210.179 158.086 211.747 127.551 244.218C97.0168 276.688 98.5878 327.765 131.06 358.301Z"
              fill="url(#paint0_linear_3198_7371)"/>
        <path d="M378.179 168.438L222.602 333.879C192.066 366.351 193.634 417.428 226.104 447.962C258.575 478.497 309.652 476.926 340.188 444.453L495.764 279.013C526.301 246.541 524.733 195.464 492.262 164.929C459.792 134.395 408.715 135.966 378.179 168.438Z"
              fill="url(#paint1_linear_3198_7371)"/>
        <path d="M394.427 327.179L336.104 272.333C333.058 269.469 328.267 269.616 325.403 272.662L325.054 273.034C322.19 276.079 322.337 280.87 325.383 283.734L383.705 338.58C386.751 341.444 391.542 341.297 394.406 338.251L394.755 337.879C397.619 334.834 397.472 330.043 394.427 327.179Z"
              fill="#BDD0FF"/>
    </g>
    <defs>
        <linearGradient id="paint0_linear_3198_7371" x1="152" y1="231" x2="268" y2="465.5"
                        gradientUnits="userSpaceOnUse">
            <stop offset="0.0473059" stop-color="#C1D2FF"/>
            <stop offset="1" stop-color="#5086FF"/>
        </linearGradient>
        <linearGradient id="paint1_linear_3198_7371" x1="302" y1="245.757" x2="417.976" y2="361.733"
                        gradientUnits="userSpaceOnUse">
            <stop stop-color="#5589FF"/>
            <stop offset="0.510417" stop-color="#2666F6"/>
            <stop offset="1" stop-color="#1752E9"/>
        </linearGradient>
        <clipPath id="clip0_3198_7371">
            <rect width="609.49" height="609.49" fill="white"/>
        </clipPath>
    </defs>
</svg>
